<?xml version="1.0" encoding="UTF-8"?>
<svg viewBox="0 0 576.47668 733.99939" xmlns="http://www.w3.org/2000/svg">
 <g transform="translate(-102.97 -414.65)">
  <path transform="matrix(.98376 .17947 -.17947 .98376 35.251 -468.83)" d="m735.39 925.08-25.702-11.437-25.11 12.683 2.9347-27.978-19.822-19.962 27.516-5.8547 12.86-25.02 14.071 24.36 27.77 4.4984-18.819 20.91 4.3031 27.801z" fill="white" stroke="#c8c8c8" stroke-width="15"/>
  <g transform="matrix(.55004 -.63736 .75706 .65334 -612.59 806.82)" stroke="none">
   <path d="m906.08 758.49h240.7a45.671 45.671 0 0 1 45.671 45.671v4.9374a45.671 45.671 0 0 1 -45.671 45.671h-240.7a45.671 45.671 0 0 1 -45.671 -45.671v-4.9374a45.671 45.671 0 0 1 45.671 -45.671" fill="white" stroke-width="12.961"/>
   <path d="m910.84 777.66h231.19a27.484 27.484 0 0 1 27.484 27.484v2.9712a27.484 27.484 0 0 1 -27.484 27.484h-231.19a27.484 27.484 0 0 1 -27.484 -27.484v-2.9712a27.484 27.484 0 0 1 27.484 -27.484" stroke-width="9.3336"/>
  </g>
  <g transform="matrix(-.2251 .97434 .97434 .2251 -274.3 -204.72)" stroke="none">
   <path d="m906.08 758.49h240.7a45.671 45.671 0 0 1 45.671 45.671v4.9374a45.671 45.671 0 0 1 -45.671 45.671h-240.7a45.671 45.671 0 0 1 -45.671 -45.671v-4.9374a45.671 45.671 0 0 1 45.671 -45.671" fill="white" stroke-width="12.961"/>
   <path d="m910.84 777.66h231.19a27.484 27.484 0 0 1 27.484 27.484v2.9712a27.484 27.484 0 0 1 -27.484 27.484h-231.19a27.484 27.484 0 0 1 -27.484 -27.484v-2.9712a27.484 27.484 0 0 1 27.484 -27.484" stroke-width="9.3336"/>
  </g>
  <g transform="matrix(.38935 .92109 -.92109 .38935 739.62 -274.84)" stroke="none">
   <path d="m906.08 758.49h240.7a45.671 45.671 0 0 1 45.671 45.671v4.9374a45.671 45.671 0 0 1 -45.671 45.671h-240.7a45.671 45.671 0 0 1 -45.671 -45.671v-4.9374a45.671 45.671 0 0 1 45.671 -45.671" fill="white" stroke-width="12.961"/>
   <path d="m910.84 777.66h231.19a27.484 27.484 0 0 1 27.484 27.484v2.9712a27.484 27.484 0 0 1 -27.484 27.484h-231.19a27.484 27.484 0 0 1 -27.484 -27.484v-2.9712a27.484 27.484 0 0 1 27.484 -27.484" stroke-width="9.3336"/>
  </g>
  <path transform="matrix(1.0075 0 0 .95401 -44.286 313.84)" d="m574.29 522.36c0 101.78-85.705 184.29-191.43 184.29s-191.43-82.508-191.43-184.29 85.706-184.29 191.43-184.29 191.43 82.508 191.43 184.29z" fill="white" stroke="none" stroke-width="25.043"/>
  <path transform="matrix(.87313 0 0 .82681 7.1428 380.28)" d="m574.29 522.36c0 101.78-85.705 184.29-191.43 184.29s-191.43-82.508-191.43-184.29 85.706-184.29 191.43-184.29 191.43 82.508 191.43 184.29z"/>
  <g transform="translate(0,18)">
   <path transform="matrix(.78358 0 0 .81395 41.429 131.47)" d="m574.29 522.36c0 101.78-85.705 184.29-191.43 184.29s-191.43-82.508-191.43-184.29 85.706-184.29 191.43-184.29 191.43 82.508 191.43 184.29z" fill="white" stroke="none" stroke-width="25.043"/>
   <path transform="matrix(.6791 0 0 .70543 81.429 188.16)" d="m574.29 522.36c0 101.78-85.705 184.29-191.43 184.29s-191.43-82.508-191.43-184.29 85.706-184.29 191.43-184.29 191.43 82.508 191.43 184.29z"/>
   <path transform="matrix(1.1676 0 0 1.1676 -69.611 -87.957)" d="m434.87 524.81c0 27.197-37.085 49.245-82.833 49.245s-82.833-22.048-82.833-49.245 37.085-49.245 82.833-49.245 82.833 22.048 82.833 49.245z" fill="white" stroke="none" stroke-width="10"/>
   <path d="m266.86 524.81h58.084" fill="white" stroke="none" stroke-width="15"/>
   <path d="m357.91 524.81h58.084" fill="white" stroke="none" stroke-width="15"/>
  </g>
  <g transform="matrix(.8138 .21566 -.25616 .96664 -382.21 -201.23)" stroke="none">
   <path d="m906.08 758.49h240.7a45.671 45.671 0 0 1 45.671 45.671v4.9374a45.671 45.671 0 0 1 -45.671 45.671h-240.7a45.671 45.671 0 0 1 -45.671 -45.671v-4.9374a45.671 45.671 0 0 1 45.671 -45.671" fill="white" stroke-width="12.961"/>
   <path d="m910.84 777.66h231.19a27.484 27.484 0 0 1 27.484 27.484v2.9712a27.484 27.484 0 0 1 -27.484 27.484h-231.19a27.484 27.484 0 0 1 -27.484 -27.484v-2.9712a27.484 27.484 0 0 1 27.484 -27.484" stroke-width="9.3336"/>
  </g>
 </g>
</svg>

